<svg width="1440" height="95" viewBox="0 0 1440 95" fill="none" xmlns="http://www.w3.org/2000/svg">
<g clip-path="url(#clip0_7_122)">
<path d="M0 9.6L10.4 8.01C20.9 6.3 42 3.3 63 6.39C83.5 9.6 104 19.2 125 22.41C146.1 25.5 167 22.5 188 32.01C208.7 41.7 230 63.9 250 73.59C271.3 83.1 292 80.1 313 78.39C333.9 76.8 355 76.8 376 78.39C396.5 80.1 417 83.1 438 76.8C459.1 70.5 480 54.3 501 43.2C521.7 32.1 543 25.5 563 30.39C584.3 35.1 605 51.3 626 60.81C647 70.5 668 73.5 689 67.2C709.6 60.9 730 44.7 751 33.6C772.2 22.5 793 15.9 814 20.79C834.8 25.5 856 41.7 877 48C897.4 54.3 918 51.3 939 44.79C960 38.4 981 28.8 1002 25.59C1022.6 22.5 1043 25.5 1064 24C1085.2 22.5 1106 15.9 1127 12.81C1147.8 9.6 1169 9.6 1190 15.99C1210.4 22.5 1231 35.1 1252 33.6C1273 32.1 1294 15.9 1315 22.41C1335.7 28.8 1357 57.6 1377 59.19C1398.3 60.9 1419 35.1 1430 22.41L1440 9.6V96H1429.6C1419.1 96 1398 96 1377 96C1356.5 96 1336 96 1315 96C1293.9 96 1273 96 1252 96C1231.3 96 1210 96 1190 96C1168.7 96 1148 96 1127 96C1106.1 96 1085 96 1064 96C1043.5 96 1023 96 1002 96C980.9 96 960 96 939 96C918.3 96 897 96 877 96C855.7 96 835 96 814 96C793 96 772 96 751 96C730.4 96 710 96 689 96C667.8 96 647 96 626 96C605.2 96 584 96 563 96C542.6 96 522 96 501 96C480 96 459 96 438 96C417.4 96 397 96 376 96C354.8 96 334 96 313 96C292.2 96 271 96 250 96C229.6 96 209 96 188 96C167 96 146 96 125 96C104.3 96 83 96 63 96C41.7 96 21 96 10 96H0V9.6Z" fill="#66D9E8"/>
</g>
<defs>
<clipPath id="clip0_7_122">
<rect width="1440" height="96" fill="white"/>
</clipPath>
</defs>
</svg>
