<svg width="1440" height="97" viewBox="0 0 1440 97" fill="none" xmlns="http://www.w3.org/2000/svg">
<path d="M0 70.2529H21.8C43.6 70.2529 87 70.2529 131 68.094C174.5 65.7722 218 61.6988 262 57.2181C305.5 52.7374 349 48.6641 393 39.8249C436.4 31.1486 480 18.1138 524 18.1138C567.3 18.1138 611 31.1486 655 42.0245C698.2 52.7374 742 61.6988 785 57.2181C829.1 52.7374 873 35.6293 916 26.7901C960 18.1138 1004 18.1138 1047 24.6312C1090.9 31.1486 1135 44.1834 1178 35.5071C1221.8 26.6679 1265 -3.47497 1309 0.720591C1352.7 5.07909 1396 44.1834 1418 63.7355L1440 83.2876V96.3224H1418.2C1396.4 96.3224 1353 96.3224 1309 96.3224C1265.5 96.3224 1222 96.3224 1178 96.3224C1134.5 96.3224 1091 96.3224 1047 96.3224C1003.6 96.3224 960 96.3224 916 96.3224C872.7 96.3224 829 96.3224 785 96.3224C741.8 96.3224 698 96.3224 655 96.3224C610.9 96.3224 567 96.3224 524 96.3224C480 96.3224 436 96.3224 393 96.3224C349.1 96.3224 305 96.3224 262 96.3224C218.2 96.3224 175 96.3224 131 96.3224C87.3 96.3224 44 96.3224 22 96.3224H0V70.2529Z" fill="url(#paint0_linear_25_10)"/>
<defs>
<linearGradient id="paint0_linear_25_10" x1="0" y1="48.3224" x2="1440" y2="48.3224" gradientUnits="userSpaceOnUse">
<stop stop-color="#66D9E8"/>
<stop offset="1" stop-color="#4798A2"/>
</linearGradient>
</defs>
</svg>
