<svg width="1440" height="145" viewBox="0 0 1440 145" fill="none" xmlns="http://www.w3.org/2000/svg">
<g clip-path="url(#clip0_11_9)">
<path d="M1440 145L1427.4 132.902C1414.7 120.984 1389 96.5156 1364 82.1516C1338.9 67.5156 1314 62.9844 1288 67.6516C1263.2 72.5 1238 87 1213 89.4016C1187.4 91.9844 1162 82.0156 1137 82.1516C1111.6 82.0156 1086 91.9844 1061 91.8484C1035.8 91.9844 1011 82.0156 985 79.75C960 77.4844 935 82.0156 909 79.75C884.2 77.4844 859 67.5156 834 58C808.4 48.4844 783 38.5156 758 50.75C732.6 62.9844 707 96.5156 682 108.75C656.8 120.984 632 111.016 606 101.5C581.1 91.9844 556 82.0156 531 82.1516C505.3 82.0156 480 91.9844 455 96.6516C429.5 101.5 404 101.5 379 94.25C353.7 87 328 72.5 303 58C277.9 43.5 253 29 227 21.75C202.1 14.5 177 14.5 152 14.5C126.3 14.5 101 14.5 76 19.3484C50.5 24.0156 25 33.9844 13 38.6516L0 43.5V0H12.6C25.3 0 51 0 76 0C101.1 0 126 0 152 0C176.8 0 202 0 227 0C252.6 0 278 0 303 0C328.4 0 354 0 379 0C404.2 0 429 0 455 0C480 0 505 0 531 0C555.8 0 581 0 606 0C631.6 0 657 0 682 0C707.4 0 733 0 758 0C783.2 0 808 0 834 0C858.9 0 884 0 909 0C934.7 0 960 0 985 0C1010.5 0 1036 0 1061 0C1086.3 0 1112 0 1137 0C1162.1 0 1187 0 1213 0C1237.9 0 1263 0 1288 0C1313.7 0 1339 0 1364 0C1389.5 0 1415 0 1427 0H1440V145Z" fill="#66D9E8"/>
</g>
<defs>
<clipPath id="clip0_11_9">
<rect width="1440" height="145" fill="white" transform="matrix(-1 0 0 -1 1440 145)"/>
</clipPath>
</defs>
</svg>
