<svg width="1440" height="96" viewBox="0 0 1440 96" fill="none" xmlns="http://www.w3.org/2000/svg">
<path d="M0 69.9305H21.8C43.6 69.9305 87 69.9305 131 67.7716C174.5 65.4498 218 61.3764 262 56.8957C305.5 52.415 349 48.3417 393 39.5025C436.4 30.8262 480 17.7915 524 17.7915C567.3 17.7915 611 30.8262 655 41.7021C698.2 52.415 742 61.3764 785 56.8957C829.1 52.415 873 35.3069 916 26.4677C960 17.7915 1004 17.7915 1047 24.3088C1090.9 30.8262 1135 43.861 1178 35.1847C1221.8 26.3455 1265 -3.79736 1309 0.398203C1352.7 4.7567 1396 43.861 1418 63.4131L1440 82.9652V96H1418.2C1396.4 96 1353 96 1309 96C1265.5 96 1222 96 1178 96C1134.5 96 1091 96 1047 96C1003.6 96 960 96 916 96C872.7 96 829 96 785 96C741.8 96 698 96 655 96C610.9 96 567 96 524 96C480 96 436 96 393 96C349.1 96 305 96 262 96C218.2 96 175 96 131 96C87.3 96 44 96 22 96H0V69.9305Z" fill="#66D9E8"/>
</svg>
